<svg aria-hidden="true" style="position: absolute; width: 0; height: 0; overflow: hidden;" version="1.1" xmlns="http://www.w3.org/2000/svg" xmlns:xlink="http://www.w3.org/1999/xlink">
<defs>
<symbol id="icon-telegram" viewBox="0 0 32 32">
<path d="M26.37 5.906c1.451-0.611 3.006 0.616 2.749 2.169l-3.025 18.342c-0.292 1.769-2.234 2.783-3.857 1.902-1.358-0.737-3.372-1.873-5.188-3.059-0.907-0.592-3.682-2.492-3.341-3.844 0.292-1.156 4.958-5.5 7.625-8.083 1.047-1.015 0.57-1.601-0.667-0.667-3.069 2.318-7.996 5.842-9.625 6.833-1.438 0.875-2.188 1.024-3.083 0.875-1.635-0.272-3.151-0.694-4.388-1.207-1.673-0.693-1.591-2.992-0.001-3.661l22.8-9.6z"></path>
</symbol>
<symbol id="icon-cognition" viewBox="0 0 32 32">
<path d="M10.3 19.033c0.644 0.644 1.433 0.967 2.367 0.967s1.722-0.322 2.367-0.967l5.333-5.333c0.644-0.644 0.967-1.433 0.967-2.367s-0.322-1.722-0.967-2.367c-0.644-0.644-1.433-0.967-2.367-0.967s-1.722 0.322-2.367 0.967c-0.822-0.289-1.633-0.356-2.433-0.2s-1.478 0.511-2.033 1.067c-0.556 0.556-0.911 1.233-1.067 2.033s-0.089 1.611 0.2 2.433c-0.644 0.644-0.967 1.433-0.967 2.367s0.322 1.722 0.967 2.367zM8 23.6c-1.267-1.156-2.25-2.505-2.951-4.049s-1.050-3.172-1.049-4.884c0-3.333 1.167-6.167 3.5-8.5s5.167-3.5 8.5-3.5c2.778 0 5.239 0.817 7.384 2.451s3.539 3.761 4.183 6.383l1.733 6.833c0.111 0.422 0.033 0.806-0.233 1.151s-0.622 0.517-1.067 0.516h-2.667v4c0 0.733-0.261 1.361-0.783 1.884s-1.15 0.784-1.884 0.783h-2.667v1.333c0 0.378-0.128 0.695-0.384 0.951s-0.572 0.384-0.949 0.383c-0.377-0.001-0.693-0.129-0.949-0.384s-0.384-0.572-0.384-0.949v-2.667c0-0.378 0.128-0.694 0.384-0.949s0.572-0.383 0.949-0.384h4v-5.333c0-0.378 0.128-0.694 0.384-0.949s0.572-0.383 0.949-0.384h2.267l-1.267-5.167c-0.511-2.022-1.6-3.667-3.267-4.933s-3.578-1.9-5.733-1.9c-2.578 0-4.778 0.9-6.6 2.7s-2.733 3.989-2.733 6.567c0 1.333 0.272 2.6 0.817 3.8s1.317 2.267 2.316 3.2l0.867 0.8v5.6c0 0.378-0.128 0.695-0.384 0.951s-0.572 0.384-0.949 0.383c-0.377-0.001-0.693-0.129-0.949-0.384s-0.384-0.572-0.384-0.949v-4.4z"></path>
</symbol>
<symbol id="icon-location" viewBox="0 0 32 32">
<path d="M16 0c-6.625 0-12 5.375-12 12 0.016 1.422 0.273 2.828 0.773 4.156l-0.031-0.008c1.273 3.977 7.563 10.164 11.25 13.859h0.008v-0.008c3.016-3.016 7.758-7.852 10.094-11.508 0.523-0.828 0.938-1.617 1.172-2.344l-0.039 0.008c0.5-1.328 0.766-2.734 0.773-4.156 0-6.625-5.367-12-12-12zM16 7.383c2.547 0 4.617 2.070 4.617 4.617s-2.070 4.617-4.617 4.617c-2.547-0.008-4.609-2.070-4.609-4.617-0.008-2.547 2.063-4.609 4.609-4.617z"></path>
</symbol>
<symbol id="icon-phone" viewBox="0 0 32 32">
<path d="M24.882 19.773l-3.268-0.373c-0.785-0.090-1.557 0.18-2.11 0.733l-2.367 2.367c-3.641-1.853-6.626-4.825-8.478-8.478l2.38-2.38c0.553-0.553 0.823-1.325 0.733-2.11l-0.373-3.242c-0.154-1.299-1.248-2.277-2.56-2.277h-2.226c-1.454 0-2.663 1.209-2.573 2.663 0.682 10.987 9.469 19.761 20.443 20.443 1.454 0.090 2.663-1.119 2.663-2.573v-2.226c0.013-1.3-0.965-2.393-2.264-2.547z"></path>
</symbol>
<symbol id="icon-email" viewBox="0 0 32 32">
<path d="M26.667 5.333h-21.333c-1.467 0-2.653 1.2-2.653 2.667l-0.013 16c0 1.467 1.2 2.667 2.667 2.667h21.333c1.467 0 2.667-1.2 2.667-2.667v-16c0-1.467-1.2-2.667-2.667-2.667zM26.133 11l-9.427 5.893c-0.427 0.267-0.987 0.267-1.413 0l-9.427-5.893c-0.333-0.213-0.533-0.573-0.533-0.96 0-0.893 0.973-1.427 1.733-0.96l8.933 5.587 8.933-5.587c0.76-0.467 1.733 0.067 1.733 0.96 0 0.387-0.2 0.747-0.533 0.96z"></path>
</symbol>
<symbol id="icon-logo" viewBox="0 0 35 32">
<path fill="#fcb040" style="fill: var(--color1, #fcb040)" d="M16.854 21.044l0.761 0.032c-0.085-4.59 0.546-9.080 2.995-11.609 2.41-2.488 5.242-1.48 8.532-4.273l0.986-0.838c-0.311 0.736-2.271 2.383-3.005 2.911-0.583 0.419-1.122 0.753-1.851 1.119-2.165 1.089-3.365 0.865-4.919 4.055-0.444 0.913-1.472 3.698-1.413 4.541 1.346-0.334 2.61-0.793 3.816-1.344 0.754-0.344 0.892-0.488 0.174-1.515-0.676-0.967-0.914-0.807-1.5-0.954-0.19-0.047-0.090-0.024-0.157-0.062 2.15-0.433 2.030 1.425 3.935 1.028 1.502-0.313 4.35-3.518 5.191-5.107 0.443-0.837 1.117-1.707-0.138-2.504-0.38-0.241-0.586-0.188-1.077-0.247 0.9-0.179 0.899-0.248 1.769 0.153 0.682 0.315 0.762-0.773 0.867-1.345 0.208-1.123 0.372-3.215 0.149-4.368-0.333 0.189-0.165 0.281-0.923 0.642-2.141 1.017-4.021 0.042-5.628 2.622-0.396 0.637-0.874 1.493-1.61 1.672 0.12-0.378 0.441-0.765 0.607-1.285 0.157-0.493 0.239-1.192 0.031-1.593-0.91-0.027-3.928 1.162-4.795 2.238-0.491 0.61-0.943 1.485-1.144 2.423-0.38 1.777-0.129 1.936-0.157 3.29-0.235-0.322-0.336-1.11-0.401-1.584-0.103-0.757 0.021-1.416-0.045-2.081-0.184 0.059-0.175 0.124-0.284 0.344-0.091 0.184-0.154 0.314-0.229 0.493-0.799 1.889-0.999 3.938-0.92 6.013 0.035 0.917 0.19 1.799 0.214 2.667-0.667 0.035-0.683-0.191-1.035-0.374 0.061 0.417 0.198 0.706 0.507 0.923l0.272 0.242c-0.551 0.215-1.103 0.733-1.069 1.557 0.296-0.261 0.594-0.966 1.62-0.639 0.249 0.926 0.157 1.909-0.13 2.757z"></path>
<path fill="#113b64" style="fill: var(--color2, #113b64)" d="M2.227 27.266c1.657-0.5 1.695-0.785 3.82-0.986 3.434-0.325 6.64 0.784 9.546 2.447 0.247 0.142 0.483 0.306 0.726 0.458l0.732 0.471 0.228-4.095 0.204 4.095 1.429-0.893c1.534-0.897 3.405-1.73 5.186-2.142 2.171-0.503 4.262-0.558 6.396 0.014 0.692 0.185 1.229 0.464 1.85 0.646-0.090-0.24 0.006-0.046-0.133-0.262-0.397-0.63-2.204-3.587-2.268-3.629-2.724-1.765-10.068-1.559-12.676 0.917-4.045-2.53-7.52-3.308-12.047-1.262-0.478 0.216-0.504 0.294-0.774 0.687l-2.219 3.536z"></path>
<path fill="#113b64" style="fill: var(--color2, #113b64)" d="M16.298 30.361c-0.235-0.29-3.473-1.525-3.82-1.637-1.277-0.412-2.399-0.713-3.8-0.871-2.175-0.246-4.060 0.014-6.098 0.668-1.254 0.403-0.921 0.236-1.326 1.010 1.033-0.234 1.79-0.638 3.355-0.879 2.755-0.424 5.074-0.261 7.787 0.441 0.618 0.16 3.536 1.182 3.901 1.269z"></path>
<path fill="#113b64" style="fill: var(--color2, #113b64)" d="M18.022 30.375c0.527-0.029 4.478-1.725 7.762-1.906 2.238-0.124 3.744-0.002 5.868 0.568 0.519 0.139 1.14 0.4 1.626 0.494-0.039-0.184-0.223-0.579-0.403-0.68-0.437-0.244-2.167-0.693-2.693-0.804-1.361-0.286-2.931-0.373-4.336-0.194-2.961 0.376-5.222 1.376-7.825 2.522z"></path>
<path fill="#fcb040" style="fill: var(--color1, #fcb040)" d="M18.172 29.686c0.367-0.064 1.193-0.432 1.604-0.588 3.928-1.5 7.1-2.207 11.284-1.247 0.498 0.114 1.295 0.443 1.694 0.494-0.279-0.667-0.32-0.602-1.397-0.94-4.051-1.271-7.941-0.447-11.598 1.405-0.265 0.134-1.386 0.648-1.587 0.876z"></path>
<path fill="#fcb040" style="fill: var(--color1, #fcb040)" d="M0.718 30.737c0.339-0.025 1.286-0.396 1.718-0.51 5.522-1.467 8.797-0.585 13.998 0.825-0.912-0.495-2.307-0.949-3.901-1.381-4.020-1.090-7.42-1.148-11.283 0.36-0.307 0.12-0.438 0.433-0.532 0.707z"></path>
<path fill="#fcb040" style="fill: var(--color1, #fcb040)" d="M1.78 28.348c0.456-0.083 1.116-0.358 1.645-0.488 4.018-0.983 7.533-0.243 11.283 1.216 0.432 0.168 1.259 0.539 1.651 0.609-0.075-0.085-0.028-0.049-0.148-0.131l-1.388-0.729c-3.549-1.726-7.71-2.762-11.605-1.439-0.991 0.337-1.2 0.271-1.437 0.961z"></path>
<path fill="#fcb040" style="fill: var(--color1, #fcb040)" d="M17.9 31.223l1.676-0.552c0.627-0.196 1.208-0.353 1.844-0.519 1.301-0.341 2.713-0.555 4.094-0.636 2.35-0.138 4.237 0.092 6.428 0.671 0.594 0.157 1.324 0.463 1.85 0.558-0.178-0.714-0.567-0.774-1.478-1.059-2.033-0.636-4.527-1.022-6.684-0.736-1.581 0.209-2.705 0.437-4.131 0.873l-2.736 1.032c-0.239 0.107-0.733 0.268-0.863 0.368z"></path>
<path fill="#113b64" style="fill: var(--color2, #113b64)" d="M16.805 21.543l-0.238 0.818c0.209 0.249 0.193 0.155 0.359 0.465l0.284 0.538c0.001-0.242-0.049-0.956-0.038-1.331-0.069-0.017-0.12-0.079-0.12-0.153 0-0.087 0.071-0.158 0.158-0.158s0.158 0.071 0.158 0.158c0 0.065-0.039 0.121-0.096 0.145l0.050 1.199c0.194-0.319 0.174-0.529 0.573-0.756l-0.276-1.064-0.803 0.001-0.011 0.139z"></path>
</symbol>
</defs>
</svg>
